<svg width="5" height="42" viewBox="0 0 5 42" fill="none" xmlns="http://www.w3.org/2000/svg">
<g clip-path="url(#clip0)">
<path d="M-86.2739 5.54349C-87.4736 3.54392 -86.0333 1 -83.7014 1H1C2.65685 1 4 2.34315 4 4V38C4 39.6569 2.65685 41 1 41H-83.7014C-86.0333 41 -87.4737 38.4561 -86.2739 36.4565L-77.9261 22.5435C-77.3561 21.5934 -77.3561 20.4066 -77.9261 19.4565L-86.2739 5.54349Z" fill="#FEC001"/>
<path d="M-77.9261 22.5435L-78.7836 22.029L-77.9261 22.5435ZM-77.9261 19.4565L-78.7836 19.971L-77.9261 19.4565ZM-86.2739 36.4565L-85.4164 36.971L-86.2739 36.4565ZM-83.7014 2H1V0H-83.7014V2ZM3 4V38H5V4H3ZM1 40H-83.7014V42H1V40ZM-85.4164 36.971L-77.0686 23.058L-78.7836 22.029L-87.1314 35.942L-85.4164 36.971ZM-77.0686 18.942L-85.4164 5.02899L-87.1314 6.05799L-78.7836 19.971L-77.0686 18.942ZM-77.0686 23.058C-76.3086 21.7913 -76.3086 20.2087 -77.0686 18.942L-78.7836 19.971C-78.4036 20.6044 -78.4036 21.3956 -78.7836 22.029L-77.0686 23.058ZM-83.7014 40C-85.256 40 -86.2162 38.3041 -85.4164 36.971L-87.1314 35.942C-88.7311 38.6081 -86.8106 42 -83.7014 42V40ZM3 38C3 39.1046 2.10457 40 1 40V42C3.20914 42 5 40.2091 5 38H3ZM1 2C2.10457 2 3 2.89543 3 4H5C5 1.79086 3.20914 0 1 0V2ZM-83.7014 0C-86.8106 0 -88.7311 3.39189 -87.1314 6.05799L-85.4164 5.02899C-86.2162 3.69594 -85.256 2 -83.7014 2V0Z" fill="#525252"/>
</g>
<defs>
<clipPath id="clip0">
<rect width="5" height="42" fill="white"/>
</clipPath>
</defs>
</svg>
