<svg width="13" height="42" viewBox="0 0 13 42" fill="none" xmlns="http://www.w3.org/2000/svg">
<g clip-path="url(#clip0)">
<path d="M-37.2739 5.54349C-38.4736 3.54392 -37.0333 1 -34.7014 1H50C51.6569 1 53 2.34315 53 4V38C53 39.6569 51.6569 41 50 41H-34.7014C-37.0333 41 -38.4737 38.4561 -37.2739 36.4565L-28.9261 22.5435C-28.3561 21.5934 -28.3561 20.4066 -28.9261 19.4565L-37.2739 5.54349Z" fill="#FEC001"/>
<path d="M-28.9261 22.5435L-29.7836 22.029L-28.9261 22.5435ZM-28.9261 19.4565L-29.7836 19.971L-28.9261 19.4565ZM-37.2739 36.4565L-36.4164 36.971L-37.2739 36.4565ZM-34.7014 2H50V0H-34.7014V2ZM52 4V38H54V4H52ZM50 40H-34.7014V42H50V40ZM-36.4164 36.971L-28.0686 23.058L-29.7836 22.029L-38.1314 35.942L-36.4164 36.971ZM-28.0686 18.942L-36.4164 5.02899L-38.1314 6.05799L-29.7836 19.971L-28.0686 18.942ZM-28.0686 23.058C-27.3086 21.7913 -27.3086 20.2087 -28.0686 18.942L-29.7836 19.971C-29.4036 20.6044 -29.4036 21.3956 -29.7836 22.029L-28.0686 23.058ZM-34.7014 40C-36.256 40 -37.2162 38.3041 -36.4164 36.971L-38.1314 35.942C-39.7311 38.6081 -37.8106 42 -34.7014 42V40ZM52 38C52 39.1046 51.1046 40 50 40V42C52.2091 42 54 40.2091 54 38H52ZM50 2C51.1046 2 52 2.89543 52 4H54C54 1.79086 52.2091 0 50 0V2ZM-34.7014 0C-37.8106 0 -39.7311 3.39189 -38.1314 6.05799L-36.4164 5.02899C-37.2162 3.69594 -36.256 2 -34.7014 2V0Z" fill="#525252"/>
</g>
<defs>
<clipPath id="clip0">
<rect width="13" height="42" fill="white"/>
</clipPath>
</defs>
</svg>
