<svg width="22" height="24" viewBox="0 0 22 24" fill="none" xmlns="http://www.w3.org/2000/svg">
<path d="M7.06988 3.84264C7.06988 3.53013 7.19403 3.23042 7.415 3.00944C7.63598 2.78847 7.93569 2.66432 8.2482 2.66432H12.9615C13.274 2.66432 13.5737 2.78847 13.7946 3.00944C14.0156 3.23042 14.1398 3.53013 14.1398 3.84264C14.1398 4.15514 14.0156 4.45485 13.7946 4.67583C13.5737 4.89681 13.274 5.02095 12.9615 5.02095H8.2482C7.93569 5.02095 7.63598 4.89681 7.415 4.67583C7.19403 4.45485 7.06988 4.15514 7.06988 3.84264ZM8.2482 0.307694C7.51692 0.307483 6.80355 0.533999 6.20635 0.956049C5.60915 1.3781 5.15749 1.97492 4.91357 2.66432H3.53494C2.59742 2.66432 1.69829 3.03675 1.03536 3.69968C0.37243 4.36261 0 5.26174 0 6.19926V20.339C0 21.2766 0.37243 22.1757 1.03536 22.8386C1.69829 23.5015 2.59742 23.874 3.53494 23.874H17.6747C18.6122 23.874 19.5114 23.5015 20.1743 22.8386C20.8372 22.1757 21.2097 21.2766 21.2097 20.339V6.19926C21.2097 5.26174 20.8372 4.36261 20.1743 3.69968C19.5114 3.03675 18.6122 2.66432 17.6747 2.66432H16.2961C16.0522 1.97492 15.6005 1.3781 15.0033 0.956049C14.4061 0.533999 13.6927 0.307483 12.9615 0.307694H8.2482ZM3.53494 5.02095H4.91357C5.15749 5.71035 5.60915 6.30717 6.20635 6.72922C6.80355 7.15127 7.51692 7.37779 8.2482 7.37758H12.9615C13.6927 7.37779 14.4061 7.15127 15.0033 6.72922C15.6005 6.30717 16.0522 5.71035 16.2961 5.02095H17.6747C17.9872 5.02095 18.2869 5.14509 18.5079 5.36607C18.7289 5.58705 18.853 5.88675 18.853 6.19926V20.339C18.853 20.6515 18.7289 20.9512 18.5079 21.1722C18.2869 21.3932 17.9872 21.5173 17.6747 21.5173H3.53494C3.22243 21.5173 2.92272 21.3932 2.70175 21.1722C2.48077 20.9512 2.35663 20.6515 2.35663 20.339V6.19926C2.35663 5.88675 2.48077 5.58705 2.70175 5.36607C2.92272 5.14509 3.22243 5.02095 3.53494 5.02095ZM14.9728 11.7456C15.1875 11.5234 15.3062 11.2257 15.3036 10.9168C15.3009 10.6078 15.177 10.3123 14.9585 10.0938C14.74 9.87534 14.4445 9.75141 14.1355 9.74873C13.8266 9.74605 13.5289 9.86481 13.3067 10.0795L9.42651 13.9596L7.90295 12.4361C7.68072 12.2214 7.38307 12.1027 7.07412 12.1054C6.76517 12.108 6.46964 12.232 6.25117 12.4504C6.0327 12.6689 5.90878 12.9644 5.90609 13.2734C5.90341 13.5823 6.02218 13.88 6.23682 14.1022L8.59344 16.4588C8.81441 16.6797 9.11407 16.8038 9.42651 16.8038C9.73896 16.8038 10.0386 16.6797 10.2596 16.4588L14.9728 11.7456Z" fill="#777777"/>
</svg>
