<svg width="23" height="28" viewBox="0 0 23 28" fill="none" xmlns="http://www.w3.org/2000/svg">
<path d="M5.11149 0.111664C2.28824 0.111664 0 2.78157 0 6.07507C0 8.89491 1.67827 11.2581 3.93244 11.8783L3.08564 25.6725C3.06983 25.8914 3.09961 26.1111 3.17308 26.3179C3.24655 26.5247 3.36213 26.714 3.51249 26.8738C3.66286 27.0336 3.84475 27.1605 4.04666 27.2464C4.24857 27.3323 4.46611 27.3754 4.68553 27.3729H5.53745C6.47455 27.3729 7.19357 26.6079 7.13734 25.6725L6.29054 11.8783C8.54471 11.2564 10.223 8.89491 10.223 6.07507C10.223 2.78157 7.93474 0.111664 5.11149 0.111664ZM22.2912 0.111664L20.8719 8.63081H19.807L19.0965 0.111664H18.386L17.6755 8.63081H16.6106L15.1913 0.111664H14.4809V11.1866C14.4809 11.4125 14.5706 11.6292 14.7304 11.789C14.8901 11.9487 15.1068 12.0385 15.3328 12.0385H17.5512L16.7146 25.6725C16.6988 25.8914 16.7285 26.1111 16.802 26.3179C16.8755 26.5247 16.9911 26.714 17.1414 26.8738C17.2918 27.0336 17.4737 27.1605 17.6756 27.2464C17.8775 27.3323 18.095 27.3754 18.3145 27.3729H19.1664C20.1035 27.3729 20.8225 26.6079 20.7663 25.6725L19.9297 12.0385H22.1481C22.374 12.0385 22.5907 11.9487 22.7505 11.789C22.9102 11.6292 23 11.4125 23 11.1866V0.111664H22.2895H22.2912Z" fill="#777777"/>
</svg>
