<svg width="24" height="26" viewBox="0 0 24 26" fill="none" xmlns="http://www.w3.org/2000/svg">
<path d="M19.8026 19.8462H4.18724H19.8026ZM11.9949 19.8462V13.1538V19.8462ZM15.3411 19.8462V15.3846V19.8462ZM8.64878 19.8462V15.3846V19.8462ZM19.8026 24.3077V12.4065C20.2168 12.2556 20.5971 12.0243 20.9216 11.726C21.2462 11.4277 21.5086 11.0683 21.6939 10.6683C21.8791 10.2683 21.9835 9.83562 22.0011 9.39515C22.0187 8.95469 21.9491 8.51509 21.7963 8.10159C21.6436 7.68809 21.4106 7.30884 21.1109 6.98561C20.8112 6.66238 20.4505 6.40154 20.0497 6.21806C19.6489 6.03458 19.2158 5.93208 18.7753 5.91644C18.3347 5.9008 17.8954 5.97233 17.4826 6.12692C17.0699 4.09023 14.7388 2 11.9949 2C9.25108 2 6.91993 4.09023 6.50724 6.12692C5.67451 5.81927 4.75367 5.85502 3.9473 6.22631C3.14093 6.59759 2.51508 7.274 2.20743 8.10673C1.89978 8.93946 1.93553 9.8603 2.30681 10.6667C2.6781 11.473 3.35451 12.0989 4.18724 12.4065V24.3077H19.8026Z" stroke="#777777" stroke-width="2.23077"/>
</svg>
