<svg width="29" height="30" viewBox="0 0 29 30" fill="none" xmlns="http://www.w3.org/2000/svg">
<path d="M24.3131 22.4994C23.7788 21.2339 23.0036 20.0845 22.0304 19.1151C21.0603 18.1429 19.911 17.3677 18.6462 16.8325C18.6348 16.8268 18.6235 16.824 18.6122 16.8183C20.3765 15.5439 21.5235 13.468 21.5235 11.1259C21.5235 7.24603 18.38 4.10248 14.5001 4.10248C10.6202 4.10248 7.47663 7.24603 7.47663 11.1259C7.47663 13.468 8.62361 15.5439 10.388 16.8211C10.3766 16.8268 10.3653 16.8296 10.354 16.8353C9.08523 17.3705 7.94675 18.138 6.9697 19.1179C5.99749 20.0881 5.22235 21.2373 4.68708 22.5022C4.16124 23.7405 3.87764 25.0681 3.85163 26.4132C3.85088 26.4434 3.85618 26.4735 3.86723 26.5017C3.87827 26.5298 3.89484 26.5555 3.91596 26.5771C3.93707 26.5987 3.9623 26.6159 3.99017 26.6277C4.01803 26.6394 4.04796 26.6455 4.0782 26.6454H5.77741C5.90202 26.6454 6.00115 26.5463 6.00398 26.4245C6.06062 24.2382 6.93855 22.1907 8.4905 20.6387C10.0963 19.0329 12.2288 18.1494 14.5001 18.1494C16.7714 18.1494 18.9039 19.0329 20.5096 20.6387C22.0616 22.1907 22.9395 24.2382 22.9962 26.4245C22.999 26.5492 23.0981 26.6454 23.2227 26.6454H24.9219C24.9522 26.6455 24.9821 26.6394 25.01 26.6277C25.0378 26.6159 25.0631 26.5987 25.0842 26.5771C25.1053 26.5555 25.1219 26.5298 25.1329 26.5017C25.144 26.4735 25.1493 26.4434 25.1485 26.4132C25.1202 25.0595 24.8398 23.7426 24.3131 22.4994ZM14.5001 15.997C13.2002 15.997 11.9767 15.4901 11.0563 14.5697C10.1359 13.6493 9.62898 12.4258 9.62898 11.1259C9.62898 9.82601 10.1359 8.60258 11.0563 7.68217C11.9767 6.76176 13.2002 6.25482 14.5001 6.25482C15.8 6.25482 17.0234 6.76176 17.9438 7.68217C18.8642 8.60258 19.3712 9.82601 19.3712 11.1259C19.3712 12.4258 18.8642 13.6493 17.9438 14.5697C17.0234 15.4901 15.8 15.997 14.5001 15.997Z" fill="#777777"/>
</svg>
