<svg width="42" height="42" viewBox="0 0 42 42" fill="none" xmlns="http://www.w3.org/2000/svg">
<path d="M33.9565 10.6087H29.1326L26.3478 7.56522H17.2174V10.6087H25.0087L27.7935 13.6522H33.9565V31.913H9.6087V18.2174H6.56522V31.913C6.56522 33.587 7.93478 34.9565 9.6087 34.9565H33.9565C35.6304 34.9565 37 33.587 37 31.913V13.6522C37 11.9783 35.6304 10.6087 33.9565 10.6087ZM14.1739 22.7826C14.1739 26.9826 17.5826 30.3913 21.7826 30.3913C25.9826 30.3913 29.3913 26.9826 29.3913 22.7826C29.3913 18.5826 25.9826 15.1739 21.7826 15.1739C17.5826 15.1739 14.1739 18.5826 14.1739 22.7826ZM21.7826 18.2174C24.2935 18.2174 26.3478 20.2717 26.3478 22.7826C26.3478 25.2935 24.2935 27.3478 21.7826 27.3478C19.2717 27.3478 17.2174 25.2935 17.2174 22.7826C17.2174 20.2717 19.2717 18.2174 21.7826 18.2174ZM9.6087 10.6087H14.1739V7.56522H9.6087V3H6.56522V7.56522H2V10.6087H6.56522V15.1739H9.6087V10.6087Z" fill="#E7E7E7"/>
</svg>
