<svg width="8" height="17" viewBox="0 0 8 17" fill="none" xmlns="http://www.w3.org/2000/svg">
<path fill-rule="evenodd" clip-rule="evenodd" d="M4.86501 1.5C4.48011 0.833333 3.51786 0.833334 3.13296 1.5L0.53488 6C0.14998 6.66667 0.631106 7.5 1.40091 7.5H6.59706C7.36686 7.5 7.84798 6.66667 7.46308 6L4.86501 1.5ZM3.13349 15.5C3.51839 16.1667 4.48064 16.1667 4.86554 15.5L7.46362 11C7.84852 10.3333 7.3674 9.5 6.5976 9.5L1.40145 9.5C0.631646 9.5 0.15052 10.3333 0.535419 11L3.13349 15.5Z" fill="#9E9E9E"/>
<path d="M1.40145 9.5L1.40145 9.8L1.40145 9.5ZM4.86554 15.5L4.60573 15.35L4.86554 15.5ZM3.13349 15.5L2.87368 15.65L3.13349 15.5ZM3.13296 1.5L2.87315 1.35L3.13296 1.5ZM4.86501 1.5L4.6052 1.65L4.86501 1.5ZM0.794688 6.15L3.39276 1.65L2.87315 1.35L0.275073 5.85L0.794688 6.15ZM6.59706 7.2H1.40091V7.8H6.59706V7.2ZM4.6052 1.65L7.20328 6.15L7.72289 5.85L5.12482 1.35L4.6052 1.65ZM7.20381 10.85L4.60573 15.35L5.12535 15.65L7.72343 11.15L7.20381 10.85ZM1.40145 9.8L6.5976 9.8L6.5976 9.2L1.40145 9.2L1.40145 9.8ZM3.3933 15.35L0.795227 10.85L0.275612 11.15L2.87368 15.65L3.3933 15.35ZM1.40145 9.2C0.400705 9.2 -0.224757 10.2833 0.275612 11.15L0.795227 10.85C0.525797 10.3833 0.862586 9.8 1.40145 9.8L1.40145 9.2ZM4.60573 15.35C4.3363 15.8167 3.66273 15.8167 3.3933 15.35L2.87368 15.65C3.37405 16.5167 4.62498 16.5167 5.12535 15.65L4.60573 15.35ZM7.72343 11.15C8.2238 10.2833 7.59834 9.2 6.5976 9.2L6.5976 9.8C7.13646 9.8 7.47325 10.3833 7.20381 10.85L7.72343 11.15ZM6.59706 7.8C7.5978 7.8 8.22326 6.71666 7.72289 5.85L7.20328 6.15C7.47271 6.61667 7.13592 7.2 6.59706 7.2V7.8ZM3.39276 1.65C3.66219 1.18333 4.33577 1.18333 4.6052 1.65L5.12482 1.35C4.62444 0.483332 3.37352 0.483334 2.87315 1.35L3.39276 1.65ZM0.275073 5.85C-0.225298 6.71667 0.400167 7.8 1.40091 7.8V7.2C0.862046 7.2 0.525258 6.61667 0.794688 6.15L0.275073 5.85Z" fill="white"/>
</svg>
